<?xml version="1.0" encoding="UTF-8"?>
<svg id="Layer_1" data-name="Layer 1" xmlns="http://www.w3.org/2000/svg" xmlns:xlink="http://www.w3.org/1999/xlink" viewBox="0 0 871.9 871.9">
  <defs>
    <style>
      .cls-1 {
        fill: url(#linear-gradient);
      }

      .cls-2 {
        fill: #fff;
      }
    </style>
    <linearGradient id="linear-gradient" x1="0" y1="871.9" x2="871.9" y2="0" gradientUnits="userSpaceOnUse">
      <stop offset="0" stop-color="#ec009f"/>
      <stop offset=".23" stop-color="#b01cb4"/>
      <stop offset=".61" stop-color="#524ad6"/>
      <stop offset=".87" stop-color="#1767ec"/>
      <stop offset="1" stop-color="#0073f5"/>
    </linearGradient>
  </defs>
  <rect class="cls-1" x="0" width="871.9" height="871.9"/>
  <path class="cls-2" d="M635.62,593.75h-44.64v-115.64c0-85.34-69.42-154.76-154.76-154.76v-44.64c109.95,0,199.4,89.45,199.4,199.4v115.64ZM547.08,478.12c0-61.13-49.73-110.86-110.86-110.86v44.64c36.51,0,66.22,29.71,66.22,66.22v115.64h44.64v-115.64ZM283.07,411.9h-45c11.13,99.47,95.75,177.08,198.15,177.08v-44.65c-77.75,0-142.3-57.62-153.15-132.43M373.88,411.9h-46.26c10.36,50.47,55.12,88.53,108.6,88.53v-44.64c-28.68,0-53.16-18.33-62.34-43.9"/>
</svg>
